<svg width="16" height="18" viewBox="0 0 16 18" fill="none" xmlns="http://www.w3.org/2000/svg">
<path d="M14.875 7.12499C15.0947 7.12501 15.3063 7.20765 15.4679 7.35651C15.6294 7.50537 15.729 7.70955 15.747 7.92849L15.75 7.99999V15.125C15.75 15.8685 15.462 16.583 14.9465 17.1187C14.4309 17.6544 13.7279 17.9695 12.985 17.998L12.875 18H3.125C2.38153 18 1.66696 17.712 1.13127 17.1965C0.595586 16.6809 0.280446 15.9779 0.252 15.235L0.25 15.125V7.99999C0.250229 7.77427 0.337675 7.55738 0.494065 7.39462C0.650456 7.23187 0.863691 7.13584 1.08922 7.12661C1.31474 7.11738 1.53511 7.19566 1.70428 7.34509C1.87345 7.49452 1.97833 7.70355 1.997 7.92849L2 7.99999V15.125C1.99996 15.4101 2.10815 15.6845 2.30268 15.8929C2.49722 16.1012 2.76361 16.228 3.048 16.2475L3.125 16.25H12.875C13.1601 16.25 13.4345 16.1418 13.6429 15.9473C13.8512 15.7528 13.978 15.4864 13.9975 15.202L14 15.125V7.99999C14 7.51699 14.3915 7.12499 14.875 7.12499ZM7.7495 0.133988L7.824 0.126488L7.9115 0.125488L7.9885 0.131988L8.0775 0.148488L8.112 0.157488C8.2095 0.184488 8.3035 0.228988 8.3885 0.290488L8.4485 0.337988L8.495 0.381488L12.384 4.27049C12.5426 4.42949 12.6341 4.64339 12.6393 4.86793C12.6446 5.09247 12.5633 5.31044 12.4124 5.47671C12.2614 5.64299 12.0522 5.74484 11.8282 5.76118C11.6042 5.77752 11.3825 5.7071 11.209 5.56449L11.1465 5.50799L8.75 3.11099V12.75C8.74998 12.9697 8.66733 13.1813 8.51848 13.3428C8.36962 13.5044 8.16544 13.604 7.9465 13.622L7.875 13.625C7.65541 13.625 7.44384 13.5424 7.2823 13.3936C7.12077 13.2449 7.02107 13.0408 7.003 12.822L7 12.75V3.11299L4.606 5.50799C4.45219 5.66174 4.24664 5.75271 4.02941 5.76316C3.81218 5.7736 3.59885 5.70278 3.431 5.56449L3.3685 5.50799C3.21467 5.35425 3.12361 5.14873 3.11308 4.9315C3.10254 4.71427 3.17328 4.5009 3.3115 4.33299L3.3685 4.27049L7.2445 0.393488C7.2725 0.364488 7.3025 0.337488 7.334 0.312488L7.3905 0.271988C7.40952 0.258803 7.42921 0.24662 7.4495 0.235488L7.459 0.230488C7.5475 0.181988 7.6455 0.148988 7.749 0.133988H7.7495Z" fill="black"/>
</svg>
